<svg width="294" height="48" viewBox="0 0 294 48" fill="none" xmlns="http://www.w3.org/2000/svg">
<path d="M36.7761 38.3672L25.7455 47.8879C9.59861 47.247 0.16394 43.3564 0.16394 31.2725H12.4619C12.4619 36.2159 16.5925 38.4587 32.1761 38.4587C33.8659 38.4587 35.4149 38.4587 36.7761 38.3672Z" fill="#092326"/>
<path d="M59.2604 15.9388H46.9624C46.9624 10.8123 41.7053 9.53069 28.891 9.53069C27.7645 9.53069 26.6849 9.53069 25.7462 9.57646L36.589 0.193115C50.8583 1.15434 59.2604 5.82312 59.2604 15.9388Z" fill="#092326"/>
<path d="M47.8533 36.0786C48.6512 35.392 49.0267 34.4765 49.0267 33.4238C49.0267 29.5331 46.3043 28.8923 30.7676 28.1599C9.9268 27.1987 1.61865 24.0404 1.61865 13.5585C1.61865 3.67169 11.5697 0.284526 28.3737 0.0556641L15.5125 11.0868C14.339 11.9565 13.9166 12.7804 13.9166 14.1078C13.9166 17.7238 16.7798 18.3646 30.7206 19.1885C49.59 20.1955 61.2777 21.2025 61.2777 33.0118C61.2777 44.8669 50.341 47.7048 34.0533 47.9794" fill="#092326"/>
<path d="M78.083 10.7206V20.7447H112.301V30.8604H78.083V47.2927H65.785V0.650635H116.385V10.7206H78.083Z" fill="#092326"/>
<path d="M139.665 31.3194L121.312 47.3397H104.367L131.31 23.9958L104.367 0.651855H121.312L139.665 16.6722L147.691 23.9958" fill="#092326"/>
<path d="M152.245 20.2412L174.916 0.650635H157.971L143.889 12.9177" fill="#092326"/>
<path d="M143.842 34.9796L157.971 47.3381H174.915L152.15 27.656" fill="#092326"/>
<path d="M258.702 31.3194L240.396 47.3397H223.451L250.394 23.9958L223.451 0.651855H240.396L258.702 16.6722L266.775 23.9958" fill="#092326"/>
<path d="M271.235 20.3328L294 0.650635H277.055L262.88 13.0092" fill="#092326"/>
<path d="M262.973 35.0714L277.055 47.3384H294L271.328 27.7478" fill="#092326"/>
<path d="M230.022 23.9946C230.022 39.8776 219.132 47.3385 206.788 47.3385H172.053V0.650635H206.788C219.179 0.650635 230.022 8.11154 230.022 23.9946ZM217.724 23.9946C217.724 12.643 211.435 10.7206 202.141 10.7206H184.351V37.2686H202.141C211.435 37.2686 217.724 35.3461 217.724 23.9946Z" fill="#092326"/>
</svg>
